<?xml version="1.0" encoding="UTF-8" standalone="no"?>
<!DOCTYPE svg PUBLIC "-//W3C//DTD SVG 1.1//EN" "http://www.w3.org/Graphics/SVG/1.1/DTD/svg11.dtd">
<svg width="100%" height="100%" viewBox="0 0 800 700" version="1.1" xmlns="http://www.w3.org/2000/svg" xmlns:xlink="http://www.w3.org/1999/xlink" xml:space="preserve" xmlns:serif="http://www.serif.com/" style="fill-rule:evenodd;clip-rule:evenodd;stroke-linejoin:round;stroke-miterlimit:2;">
    <g id="Book-pile" serif:id="Book pile" transform="matrix(1.85695,0,0,1.85695,-177.765,-1761.8)">
        <g id="Book2">
            <g transform="matrix(1.0271,-0.592997,1.65789,0.957183,-543.769,-473.266)">
                <ellipse cx="-858.436" cy="1036.32" rx="0.657" ry="0.428" style="fill:rgb(255,162,141);"/>
            </g>
            <g transform="matrix(0.866025,-0.5,1,0.57735,0,0)">
                <rect x="-861" y="1031.44" width="3" height="2.598" style="fill:rgb(255,162,141);"/>
            </g>
            <g transform="matrix(0.898829,-0.518939,0.973958,0.562315,53.5792,-0.543324)">
                <path d="M-831,929.144C-831,928.135 -831.674,927.513 -832.767,927.513C-843.267,927.513 -897,927.513 -897,927.513L-897,1010.65L-831.458,1010.65C-831.364,1010.65 -831.247,1010.6 -831.153,1010.51C-831.058,1010.42 -831,1010.32 -831,1010.23C-831,1004.41 -831,940.242 -831,929.144Z" style="fill:rgb(255,162,141);"/>
            </g>
            <g transform="matrix(0.866025,-0.5,1.1961e-16,1.29904,-8.52651e-14,-146.25)">
                <rect x="270" y="1013.25" width="64.382" height="20.785" style="fill:rgb(235,235,235);"/>
            </g>
            <g transform="matrix(0.46637,-0.269259,8.87455e-16,0.103638,95.6202,1091.8)">
                <rect x="296.111" y="272.798" width="119.555" height="2.598" style="fill:rgb(209,206,206);"/>
            </g>
            <g transform="matrix(0.46637,-0.269259,8.87455e-16,0.103638,95.6202,1088.57)">
                <rect x="296.111" y="272.798" width="119.555" height="2.598" style="fill:rgb(209,206,206);"/>
            </g>
            <g transform="matrix(0.46637,-0.269259,8.87455e-16,0.103638,95.6202,1090.19)">
                <rect x="296.111" y="272.798" width="119.555" height="2.598" style="fill:rgb(209,206,206);"/>
            </g>
            <g transform="matrix(0.46637,-0.269259,8.87455e-16,0.103638,95.6202,1095.03)">
                <rect x="296.111" y="272.798" width="119.555" height="2.598" style="fill:rgb(209,206,206);"/>
            </g>
            <g transform="matrix(0.46637,-0.269259,8.87455e-16,0.103638,95.6202,1093.42)">
                <rect x="296.111" y="272.798" width="119.555" height="2.598" style="fill:rgb(209,206,206);"/>
            </g>
            <g transform="matrix(0.46637,-0.269259,8.87455e-16,0.103638,95.6202,1098.26)">
                <rect x="296.111" y="272.798" width="119.555" height="2.598" style="fill:rgb(209,206,206);"/>
            </g>
            <g transform="matrix(0.46637,-0.269259,8.87455e-16,0.103638,95.6202,1096.65)">
                <rect x="296.111" y="272.798" width="119.555" height="2.598" style="fill:rgb(209,206,206);"/>
            </g>
            <g transform="matrix(0.46637,-0.269259,8.87455e-16,0.103638,95.6202,1101.49)">
                <rect x="296.111" y="272.798" width="119.555" height="2.598" style="fill:rgb(209,206,206);"/>
            </g>
            <g transform="matrix(0.46637,-0.269259,8.87455e-16,0.103638,95.6202,1099.88)">
                <rect x="296.111" y="272.798" width="119.555" height="2.598" style="fill:rgb(209,206,206);"/>
            </g>
            <g transform="matrix(0.46637,-0.269259,8.87455e-16,0.103638,95.6202,1104.73)">
                <rect x="296.111" y="272.798" width="119.555" height="2.598" style="fill:rgb(209,206,206);"/>
            </g>
            <g transform="matrix(0.46637,-0.269259,8.87455e-16,0.103638,95.6202,1103.11)">
                <rect x="296.111" y="272.798" width="119.555" height="2.598" style="fill:rgb(209,206,206);"/>
            </g>
            <g transform="matrix(0.46637,-0.269259,8.87455e-16,0.103638,95.6202,1107.96)">
                <rect x="296.111" y="272.798" width="119.555" height="2.598" style="fill:rgb(209,206,206);"/>
            </g>
            <g transform="matrix(0.46637,-0.269259,8.87455e-16,0.103638,95.6202,1106.34)">
                <rect x="296.111" y="272.798" width="119.555" height="2.598" style="fill:rgb(209,206,206);"/>
            </g>
            <g transform="matrix(0.847983,-0.489583,-2.23251e-16,1.1547,1049.14,-638.719)">
                <path d="M-891,1065.39C-891,1065.35 -891.027,1065.31 -891.07,1065.27C-891.114,1065.23 -891.168,1065.21 -891.211,1065.21C-895.481,1065.21 -963,1065.21 -963,1065.21L-963,1067.81L-891,1067.81L-891,1065.39Z" style="fill:rgb(255,162,141);"/>
            </g>
            <g transform="matrix(0.866025,-0.5,1,0.57735,0,0)">
                <path d="M-858,1034.03L-927.75,1034.03L-927.75,1036.63L-858.275,1036.63C-858.218,1036.63 -858.148,1036.6 -858.092,1036.55C-858.035,1036.5 -858,1036.44 -858,1036.39C-858,1035.75 -858,1034.03 -858,1034.03Z" style="fill:rgb(255,162,141);"/>
            </g>
            <g transform="matrix(0.866025,0.5,-2.7293e-17,0.586973,5.25458e-15,440.475)">
                <path d="M270,782.021L174,782.021L174,831.122C174,832.892 174.64,833.982 175.679,833.982C188.468,833.982 270,833.982 270,833.982L270,782.021Z" style="fill:rgb(255,162,141);"/>
            </g>
            <g transform="matrix(0.896466,-0.517575,6.59705e-17,1.37227,-10.3841,-214.454)">
                <path d="M336,1010.95C336,1010.89 335.95,1010.81 335.87,1010.75C335.789,1010.69 335.689,1010.65 335.609,1010.65L270,1010.65L270,1013.25L335.571,1013.25C335.836,1013.25 336,1013.13 336,1012.93C336,1012.42 336,1011.44 336,1010.95Z" style="fill:rgb(255,162,141);"/>
            </g>
            <g transform="matrix(1.17243,-0.676903,1.13959,0.657944,114.463,-227.978)">
                <ellipse cx="-831.771" cy="1009.41" rx="0.771" ry="0.756" style="fill:rgb(255,162,141);"/>
            </g>
            <g transform="matrix(0.866025,0.5,-5.55112e-17,1.31966,4.60596e-13,-132.429)">
                <rect x="183" y="784.619" width="3" height="18.187" style="fill:rgb(254,135,108);"/>
            </g>
            <g transform="matrix(0.866025,0.5,-5.55112e-17,1.31966,5.19615,-129.679)">
                <rect x="183" y="784.619" width="3" height="18.187" style="fill:rgb(254,135,108);"/>
            </g>
            <g transform="matrix(0.866025,0.5,-5.55112e-17,1.31966,10.3923,-126.429)">
                <rect x="183" y="784.619" width="3" height="18.187" style="fill:rgb(254,135,108);"/>
            </g>
            <g transform="matrix(0.866025,0.5,-5.55112e-17,1.31966,64.9519,-94.9286)">
                <rect x="183" y="784.619" width="3" height="18.187" style="fill:rgb(254,135,108);"/>
            </g>
            <g transform="matrix(0.981495,-0.566667,1,0.57735,97.3413,-59.2)">
                <rect x="-888" y="943.102" width="45" height="25.764" style="fill:rgb(254,135,108);"/>
            </g>
            <g transform="matrix(107.654,62.1542,-6.95601e-15,0.0116636,96799.7,56776)">
                <rect x="-897.772" y="927.513" width="0.772" height="85.737" style="fill:rgb(254,135,108);"/>
            </g>
        </g>
        <g id="Book1">
            <g transform="matrix(0.866025,-0.5,1,0.57735,-1062.61,613.5)">
                <rect x="336" y="1060.02" width="3" height="2.598" style="fill:rgb(150,235,220);"/>
            </g>
            <g transform="matrix(0.846714,-0.488851,5.55112e-17,1.1547,5.21405,-3.01033)">
                <rect x="270" y="1041.83" width="69" height="23.383" style="fill:rgb(235,235,235);"/>
            </g>
            <g transform="matrix(0.488096,-0.281802,8.87483e-16,0.103638,89.1868,1128.9)">
                <rect x="296.111" y="272.798" width="119.555" height="2.598" style="fill:rgb(209,206,206);"/>
            </g>
            <g transform="matrix(0.488096,-0.281802,8.87483e-16,0.103638,89.1868,1125.67)">
                <rect x="296.111" y="272.798" width="119.555" height="2.598" style="fill:rgb(209,206,206);"/>
            </g>
            <g transform="matrix(0.488096,-0.281802,8.87483e-16,0.103638,89.1868,1127.29)">
                <rect x="296.111" y="272.798" width="119.555" height="2.598" style="fill:rgb(209,206,206);"/>
            </g>
            <g transform="matrix(0.488096,-0.281802,8.87483e-16,0.103638,89.1868,1132.13)">
                <rect x="296.111" y="272.798" width="119.555" height="2.598" style="fill:rgb(209,206,206);"/>
            </g>
            <g transform="matrix(0.488096,-0.281802,8.87483e-16,0.103638,89.1868,1130.52)">
                <rect x="296.111" y="272.798" width="119.555" height="2.598" style="fill:rgb(209,206,206);"/>
            </g>
            <g transform="matrix(0.488096,-0.281802,8.87483e-16,0.103638,89.1868,1135.37)">
                <rect x="296.111" y="272.798" width="119.555" height="2.598" style="fill:rgb(209,206,206);"/>
            </g>
            <g transform="matrix(0.488096,-0.281802,8.87483e-16,0.103638,89.1868,1133.75)">
                <rect x="296.111" y="272.798" width="119.555" height="2.598" style="fill:rgb(209,206,206);"/>
            </g>
            <g transform="matrix(0.488096,-0.281802,8.87483e-16,0.103638,89.1868,1138.6)">
                <rect x="296.111" y="272.798" width="119.555" height="2.598" style="fill:rgb(209,206,206);"/>
            </g>
            <g transform="matrix(0.488096,-0.281802,8.87483e-16,0.103638,89.1868,1136.98)">
                <rect x="296.111" y="272.798" width="119.555" height="2.598" style="fill:rgb(209,206,206);"/>
            </g>
            <g transform="matrix(0.488096,-0.281802,8.87483e-16,0.103638,89.1868,1141.83)">
                <rect x="296.111" y="272.798" width="119.555" height="2.598" style="fill:rgb(209,206,206);"/>
            </g>
            <g transform="matrix(0.488096,-0.281802,8.87483e-16,0.103638,89.1868,1140.21)">
                <rect x="296.111" y="272.798" width="119.555" height="2.598" style="fill:rgb(209,206,206);"/>
            </g>
            <g transform="matrix(0.488096,-0.281802,8.87483e-16,0.103638,89.1868,1145.06)">
                <rect x="296.111" y="272.798" width="119.555" height="2.598" style="fill:rgb(209,206,206);"/>
            </g>
            <g transform="matrix(0.488096,-0.281802,8.87483e-16,0.103638,89.1868,1143.44)">
                <rect x="296.111" y="272.798" width="119.555" height="2.598" style="fill:rgb(209,206,206);"/>
            </g>
            <g transform="matrix(0.875047,-0.505208,1,0.57735,8.0378,-7.64063)">
                <path d="M-891,1065.21L-963,1065.21L-963,1067.81L-891.18,1067.81C-891.143,1067.81 -891.097,1067.79 -891.06,1067.76C-891.023,1067.72 -891,1067.68 -891,1067.65C-891,1067.09 -891,1065.21 -891,1065.21Z" style="fill:rgb(150,235,220);"/>
            </g>
            <g transform="matrix(0.847983,-0.489583,-2.24458e-16,1.1547,1049.14,-635.719)">
                <path d="M-891,1065.58C-891,1065.5 -891.055,1065.41 -891.145,1065.33C-891.234,1065.26 -891.344,1065.21 -891.434,1065.21C-897.406,1065.21 -963,1065.21 -963,1065.21L-963,1067.81L-891.414,1067.81C-891.158,1067.81 -891,1067.67 -891,1067.46C-891,1066.97 -891,1066.08 -891,1065.58Z" style="fill:rgb(150,235,220);"/>
            </g>
            <g transform="matrix(0.875047,-0.505208,-2.22764e-16,1.1547,1075.85,-621.141)">
                <path d="M-891,1065.36C-891,1065.33 -891.022,1065.29 -891.057,1065.26C-891.093,1065.23 -891.136,1065.21 -891.172,1065.21C-895.043,1065.21 -963,1065.21 -963,1065.21L-963,1067.23C-963,1067.35 -962.916,1067.5 -962.778,1067.62C-962.641,1067.74 -962.472,1067.81 -962.335,1067.81C-955.4,1067.81 -896.455,1067.81 -891.352,1067.81C-891.134,1067.81 -891,1067.69 -891,1067.5C-891,1066.94 -891,1065.78 -891,1065.36Z" style="fill:rgb(150,235,220);"/>
            </g>
            <g transform="matrix(0.866025,0.5,-2.498e-17,0.635085,-2.25299e-14,433.35)">
                <path d="M270,782.021L175.697,782.021C175.347,782.021 174.916,782.361 174.566,782.912C174.216,783.463 174,784.142 174,784.693L174,832.617C174,833.462 174.33,833.982 174.867,833.982C184.096,833.982 264.03,833.982 269.685,833.982C269.75,833.982 269.83,833.919 269.895,833.817C269.96,833.715 270,833.588 270,833.486C270,828.174 270,782.021 270,782.021Z" style="fill:rgb(150,235,220);"/>
            </g>
            <g transform="matrix(0.866025,0.5,-5.55112e-17,1.1547,0,0)">
                <rect x="183" y="808.002" width="3" height="23.383" style="fill:rgb(96,216,194);"/>
            </g>
            <g transform="matrix(0.866025,0.5,-5.55112e-17,1.1547,5.19615,3)">
                <rect x="183" y="808.002" width="3" height="23.383" style="fill:rgb(96,216,194);"/>
            </g>
            <g transform="matrix(0.866025,0.5,-5.55112e-17,1.1547,10.3923,6)">
                <rect x="183" y="808.002" width="3" height="23.383" style="fill:rgb(96,216,194);"/>
            </g>
            <g transform="matrix(0.866025,0.5,-5.55112e-17,1.1547,64.9519,37.5)">
                <rect x="183" y="808.002" width="3" height="23.383" style="fill:rgb(96,216,194);"/>
            </g>
        </g>
    </g>
    <g id="Open-book" serif:id="Open book" transform="matrix(1.81689,0,0,1.81689,-177.038,-701.65)">
        <g id="Book">
            <g transform="matrix(0.873366,-0.504238,5.55112e-17,1.1547,-2.81884,1.62746)">
                <path d="M384,746.495C384,746.32 383.877,746.105 383.677,745.93C383.477,745.756 383.23,745.648 383.03,745.648C372.456,745.648 279,745.648 279,745.648L279,751.331C279,751.578 279.174,751.882 279.457,752.129C279.739,752.376 280.087,752.528 280.37,752.528C291.701,752.528 369.804,752.528 382.312,752.528C383.357,752.528 384,751.966 384,751.053C384,749.664 384,747.631 384,746.495Z" style="fill:rgb(216,214,214);"/>
            </g>
            <g transform="matrix(0.866025,0.5,-2.02504e-16,2.09539,8.84563e-14,-477.078)">
                <path d="M279,506.625L129.886,506.625C129.703,506.625 129.478,506.679 129.295,506.766C129.113,506.853 129,506.96 129,507.047C129,507.514 129,508.262 129,508.748C129,509.042 129.379,509.223 129.995,509.223L278.543,509.223C278.637,509.223 278.753,509.195 278.848,509.15C278.942,509.105 279,509.05 279,509.005C279,508.379 279,506.625 279,506.625Z" style="fill:rgb(216,214,214);"/>
            </g>
            <g transform="matrix(1.28172,-0.74,1.25,0.721688,89.8415,-230.37)">
                <path d="M-513,622.149C-513,620.048 -514.441,618.342 -516.216,618.342L-584.784,618.342C-586.559,618.342 -588,620.048 -588,622.149L-588,718.458C-588,720.559 -586.559,722.265 -584.784,722.265L-516.216,722.265C-514.441,722.265 -513,720.559 -513,718.458L-513,622.149Z" style="fill:rgb(235,235,235);"/>
            </g>
            <g transform="matrix(0.915513,-0.528571,0.333333,0.19245,484.195,245.95)">
                <rect x="-588" y="683.294" width="105" height="2.598"/>
            </g>
            <g transform="matrix(0.866025,0.5,-5.55112e-17,1.1547,0,0)">
                <rect x="200.5" y="509.223" width="1.046" height="1.684"/>
            </g>
            <g transform="matrix(0.866025,-0.5,1,0.57735,-2.55952,2.07281)">
                <ellipse cx="-479.422" cy="680.181" rx="0.578" ry="0.515"/>
            </g>
            <g transform="matrix(0.866025,-0.5,1,0.57735,2.63664,5.07281)">
                <ellipse cx="-479.422" cy="680.181" rx="0.578" ry="0.515"/>
            </g>
            <g transform="matrix(0.866025,-0.5,1,0.57735,-10.3537,6.57281)">
                <ellipse cx="-479.422" cy="680.181" rx="0.578" ry="0.515"/>
            </g>
            <g transform="matrix(0.866025,-0.5,1,0.57735,-5.15759,9.57281)">
                <ellipse cx="-479.422" cy="680.181" rx="0.578" ry="0.515"/>
            </g>
            <g transform="matrix(0.866025,-0.5,1,0.57735,-18.148,11.0728)">
                <ellipse cx="-479.422" cy="680.181" rx="0.578" ry="0.515"/>
            </g>
            <g transform="matrix(0.866025,-0.5,1,0.57735,-12.9518,14.0728)">
                <ellipse cx="-479.422" cy="680.181" rx="0.578" ry="0.515"/>
            </g>
            <g transform="matrix(0.866025,-0.5,1,0.57735,-20.7461,18.5728)">
                <ellipse cx="-479.422" cy="680.181" rx="0.578" ry="0.515"/>
            </g>
            <g transform="matrix(0.866025,-0.5,1,0.57735,-33.7364,20.0728)">
                <ellipse cx="-479.422" cy="680.181" rx="0.578" ry="0.515"/>
            </g>
            <g transform="matrix(0.866025,-0.5,1,0.57735,-41.5307,24.5728)">
                <ellipse cx="-479.422" cy="680.181" rx="0.578" ry="0.515"/>
            </g>
            <g transform="matrix(0.866025,-0.5,1,0.57735,-36.3345,27.5728)">
                <ellipse cx="-479.422" cy="680.181" rx="0.578" ry="0.515"/>
            </g>
            <g transform="matrix(0.866025,-0.5,1,0.57735,-49.3249,29.0728)">
                <ellipse cx="-479.422" cy="680.181" rx="0.578" ry="0.515"/>
            </g>
            <g transform="matrix(0.866025,-0.5,1,0.57735,-44.1287,32.0728)">
                <ellipse cx="-479.422" cy="680.181" rx="0.578" ry="0.515"/>
            </g>
            <g transform="matrix(0.866025,-0.5,1,0.57735,-57.1191,33.5728)">
                <ellipse cx="-479.422" cy="680.181" rx="0.578" ry="0.515"/>
            </g>
            <g transform="matrix(0.866025,-0.5,1,0.57735,-51.923,36.5728)">
                <ellipse cx="-479.422" cy="680.181" rx="0.578" ry="0.515"/>
            </g>
            <g transform="matrix(0.866025,-0.5,1,0.57735,-64.9133,38.0728)">
                <ellipse cx="-479.422" cy="680.181" rx="0.578" ry="0.515"/>
            </g>
            <g transform="matrix(0.866025,-0.5,1,0.57735,-72.7076,42.5728)">
                <ellipse cx="-479.422" cy="680.181" rx="0.578" ry="0.515"/>
            </g>
            <g transform="matrix(0.866025,-0.5,1,0.57735,-67.5349,45.5863)">
                <ellipse cx="-479.422" cy="680.181" rx="0.578" ry="0.515"/>
            </g>
            <g transform="matrix(0.866025,-0.5,1,0.57735,-80.5253,47.0863)">
                <ellipse cx="-479.422" cy="680.181" rx="0.578" ry="0.515"/>
            </g>
            <g transform="matrix(0.866025,-0.5,1,0.57735,-75.3291,50.0863)">
                <ellipse cx="-479.422" cy="680.181" rx="0.578" ry="0.515"/>
            </g>
            <g transform="matrix(0.866025,-0.5,1,0.57735,-88.3195,51.5863)">
                <ellipse cx="-479.422" cy="680.181" rx="0.578" ry="0.515"/>
            </g>
            <g transform="matrix(0.866025,-0.5,1,0.57735,-83.1233,54.5863)">
                <ellipse cx="-479.422" cy="680.181" rx="0.578" ry="0.515"/>
            </g>
            <g transform="matrix(0.866025,-0.5,1,0.57735,-59.7172,41.0728)">
                <ellipse cx="-479.422" cy="680.181" rx="0.578" ry="0.515"/>
            </g>
            <g transform="matrix(0.866025,-0.5,1,0.57735,-28.5637,23.0863)">
                <ellipse cx="-479.422" cy="680.181" rx="0.578" ry="0.515"/>
            </g>
            <g transform="matrix(0.866025,-0.5,1,0.57735,-25.9657,15.5863)">
                <ellipse cx="-479.422" cy="680.181" rx="0.578" ry="0.515"/>
            </g>
        </g>
        <g id="Page-left" serif:id="Page left">
            <g transform="matrix(0.866025,-0.5,1,0.57735,0,0)">
                <rect x="-489" y="626.136" width="1.017" height="44.167"/>
            </g>
            <g transform="matrix(0.866025,-0.5,1,0.57735,-5.19615,3)">
                <rect x="-489" y="626.136" width="1.017" height="44.167"/>
            </g>
            <g transform="matrix(0.866025,-0.5,0.411765,0.237732,357.923,218.647)">
                <rect x="-489" y="626.136" width="1.017" height="44.167"/>
            </g>
            <g transform="matrix(0.866025,-0.5,1,0.57735,-18.1865,10.5)">
                <rect x="-489" y="626.136" width="1.017" height="44.167"/>
            </g>
            <g transform="matrix(0.866025,-0.5,0.764706,0.441503,118.747,101.559)">
                <rect x="-489" y="626.136" width="1.017" height="44.167"/>
            </g>
            <g transform="matrix(0.866025,-0.5,1,0.57735,-23.3827,13.5)">
                <rect x="-489" y="626.136" width="1.017" height="44.167"/>
            </g>
            <g transform="matrix(0.866025,-0.5,1,0.57735,-36.3731,21)">
                <rect x="-489" y="626.136" width="1.017" height="44.167"/>
            </g>
            <g transform="matrix(0.866025,-0.5,1,0.57735,-41.5692,24)">
                <rect x="-489" y="626.136" width="1.017" height="44.167"/>
            </g>
            <g transform="matrix(0.866025,-0.5,1,0.57735,-46.7654,27)">
                <rect x="-489" y="626.136" width="1.017" height="44.167"/>
            </g>
            <g transform="matrix(0.866025,-0.5,0.647059,0.37358,169.028,157.588)">
                <rect x="-489" y="626.136" width="1.017" height="44.167"/>
            </g>
            <g transform="matrix(0.866025,-0.5,1,0.57735,-59.7558,34.5)">
                <rect x="-489" y="626.136" width="1.017" height="44.167"/>
            </g>
            <g transform="matrix(0.866025,-0.5,1,0.57735,-64.9519,37.5)">
                <rect x="-489" y="626.136" width="1.017" height="44.167"/>
            </g>
            <g transform="matrix(0.866025,-0.5,0.352941,0.203771,334.999,274.412)">
                <rect x="-489" y="626.136" width="1.017" height="44.167"/>
            </g>
        </g>
        <g id="Page-right" serif:id="Page right">
            <g transform="matrix(0.866025,-0.5,1.11765,0.645274,-37.29,11.4706)">
                <rect x="-489" y="626.136" width="1.017" height="44.167"/>
            </g>
            <g transform="matrix(0.866025,-0.5,1.11765,0.645274,-42.4862,14.4706)">
                <rect x="-489" y="626.136" width="1.017" height="44.167"/>
            </g>
            <g transform="matrix(0.866025,-0.5,1.11765,0.645274,-47.6823,17.4706)">
                <rect x="-489" y="626.136" width="1.017" height="44.167"/>
            </g>
            <g transform="matrix(0.866025,-0.5,0.588235,0.339618,278.605,211.853)">
                <rect x="-489" y="626.136" width="1.017" height="44.167"/>
            </g>
            <g transform="matrix(0.866025,-0.5,1,0.57735,0,0)">
                <rect x="-513" y="691.088" width="27" height="49.363" style="fill:rgb(161,161,161);"/>
            </g>
        </g>
    </g>
    <g id="Laptop" transform="matrix(1.03794,0,0,1.03794,76.0017,-364.281)">
        <g id="Laptop-frame" serif:id="Laptop frame">
            <g transform="matrix(0.866025,-0.5,5.61223e-17,1.16741,-2.13163e-13,-9.20751)">
                <path d="M641.713,728.596C641.713,727.884 639.763,725.299 639.051,725.299L636,724.515C635.287,724.515 631.66,723.929 631.66,724.641L632.912,879.958C632.912,880.67 636.582,881.614 637.294,881.614L639.185,881.614C639.898,881.614 640.741,880.67 640.741,879.958L641.713,728.596Z" style="fill:rgb(216,214,214);"/>
            </g>
            <g transform="matrix(0.866025,-0.5,1,0.57735,-2.27374e-13,0)">
                <path d="M-198.661,524.463C-199.18,522.901 -201.011,522.546 -202.597,522.335C-204.645,522.062 -210.82,524.491 -206.2,523.003L-206.132,726.523C-206.132,728.22 -205.697,729.348 -204,729.348C-202.303,729.348 -198.453,727.486 -198.453,725.789L-198.661,524.463Z" style="fill:rgb(216,214,214);"/>
            </g>
            <g transform="matrix(0.858726,0.495786,-3.35874e-17,0.69282,1.90026,225.78)">
                <path d="M460,488.612C460,486.604 459.014,484.974 457.799,484.974L222.201,484.974C220.986,484.974 220,486.604 220,488.612L220,498.657C220,500.665 220.986,502.295 222.201,502.295L457.799,502.295C459.014,502.295 460,500.665 460,498.657L460,488.612Z" style="fill:rgb(216,214,214);"/>
            </g>
            <g transform="matrix(0.866025,-0.5,3.41955e-17,0.69282,-3.4641,408)">
                <path d="M640,886.913C640,884.944 639.041,883.346 637.86,883.346L462.14,883.346C460.959,883.346 460,884.944 460,886.913L460,897.1C460,899.068 460.959,900.666 462.14,900.666L637.86,900.666C639.041,900.666 640,899.068 640,897.1L640,886.913Z" style="fill:rgb(216,214,214);"/>
            </g>
            <g transform="matrix(0.866025,0.5,-6.93889e-17,1.44338,-7.5075e-14,-96)">
                <path d="M636,210.608C636,208.899 634.48,207.846 632.014,207.846C603.701,207.846 433.234,207.846 401.191,207.846C400.12,207.846 398.801,208.303 397.73,209.045C396.66,209.787 396,210.7 396,211.442C396,231.886 396,332.554 396,332.554L636,332.554L636,210.608Z" style="fill:rgb(235,235,235);"/>
            </g>
            <g transform="matrix(0.863707,-0.498661,1.00269,0.578901,-6.58298,2.39287)">
                <path d="M-378.821,674.907L-552.934,674.907C-554.248,674.907 -555.866,675.604 -557.18,676.736C-558.494,677.868 -559.304,679.262 -559.304,680.394C-559.304,709.585 -559.304,846.443 -559.304,876.395C-559.304,879.985 -556.736,882.196 -552.569,882.196L-378.821,882.196L-378.821,674.907Z" style="fill:rgb(235,235,235);"/>
            </g>
        </g>
        <g id="Keys-and-trackpad" serif:id="Keys and trackpad">
            <g transform="matrix(0.84562,-0.488219,0.994574,0.574218,-89.9528,341.173)">
                <path d="M-10.293,449.615C-10.293,446.657 -12.739,444.255 -15.752,444.255L-100.141,444.255C-103.154,444.255 -105.6,446.657 -105.6,449.615L-105.6,614.441C-105.6,617.399 -103.154,619.801 -100.141,619.801L-15.752,619.801C-12.739,619.801 -10.293,617.399 -10.293,614.441L-10.293,449.615Z" style="fill:rgb(209,206,206);"/>
            </g>
            <g transform="matrix(0.866025,-0.5,0.5,0.288675,415.692,312)">
                <path d="M-408,698.076C-408,697.087 -408.401,696.284 -408.896,696.284L-419.104,696.284C-419.599,696.284 -420,697.087 -420,698.076L-420,715.277C-420,716.266 -419.599,717.069 -419.104,717.069L-408.896,717.069C-408.401,717.069 -408,716.266 -408,715.277L-408,698.076Z"/>
            </g>
            <g transform="matrix(0.866025,-0.5,0.5,0.288675,402.702,304.5)">
                <path d="M-408,698.076C-408,697.087 -408.401,696.284 -408.896,696.284L-419.104,696.284C-419.599,696.284 -420,697.087 -420,698.076L-420,715.277C-420,716.266 -419.599,717.069 -419.104,717.069L-408.896,717.069C-408.401,717.069 -408,716.266 -408,715.277L-408,698.076Z"/>
            </g>
            <g transform="matrix(0.866025,-0.5,0.5,0.288675,428.683,319.5)">
                <path d="M-408,698.076C-408,697.087 -408.401,696.284 -408.896,696.284L-419.104,696.284C-419.599,696.284 -420,697.087 -420,698.076L-420,715.277C-420,716.266 -419.599,717.069 -419.104,717.069L-408.896,717.069C-408.401,717.069 -408,716.266 -408,715.277L-408,698.076Z"/>
            </g>
            <g transform="matrix(0.866025,-0.5,0.523419,0.302196,424.88,317.305)">
                <path d="M-408,698.076C-408,697.087 -408.42,696.284 -408.938,696.284L-419.062,696.284C-419.58,696.284 -420,697.087 -420,698.076L-420,715.277C-420,716.266 -419.58,717.069 -419.062,717.069L-408.938,717.069C-408.42,717.069 -408,716.266 -408,715.277L-408,698.076Z"/>
            </g>
            <g transform="matrix(0.866025,-0.5,1,0.57735,-2.27374e-13,0)">
                <path d="M-504,755.134C-504,751.332 -507.086,748.246 -510.888,748.246L-545.112,748.246C-548.914,748.246 -552,751.332 -552,755.134L-552,803.712C-552,807.513 -548.914,810.6 -545.112,810.6L-510.888,810.6C-507.086,810.6 -504,807.513 -504,803.712L-504,755.134Z"/>
            </g>
            <g transform="matrix(0.866025,-0.5,0.5,0.288675,348.142,201)">
                <path d="M-408,698.076C-408,697.087 -408.401,696.284 -408.896,696.284L-419.104,696.284C-419.599,696.284 -420,697.087 -420,698.076L-420,715.277C-420,716.266 -419.599,717.069 -419.104,717.069L-408.896,717.069C-408.401,717.069 -408,716.266 -408,715.277L-408,698.076Z"/>
            </g>
            <g transform="matrix(0.866025,-0.5,0.5,0.288675,439.075,271.5)">
                <path d="M-408,698.076C-408,697.087 -408.401,696.284 -408.896,696.284L-419.104,696.284C-419.599,696.284 -420,697.087 -420,698.076L-420,715.277C-420,716.266 -419.599,717.069 -419.104,717.069L-408.896,717.069C-408.401,717.069 -408,716.266 -408,715.277L-408,698.076Z"/>
            </g>
            <g transform="matrix(0.866025,-0.5,0.5,0.288675,452.065,279)">
                <path d="M-408,698.076C-408,697.087 -408.401,696.284 -408.896,696.284L-419.104,696.284C-419.599,696.284 -420,697.087 -420,698.076L-420,715.277C-420,716.266 -419.599,717.069 -419.104,717.069L-408.896,717.069C-408.401,717.069 -408,716.266 -408,715.277L-408,698.076Z"/>
            </g>
            <g transform="matrix(0.866025,-0.5,0.5,0.288675,465.056,286.5)">
                <path d="M-408,698.076C-408,697.087 -408.401,696.284 -408.896,696.284L-419.104,696.284C-419.599,696.284 -420,697.087 -420,698.076L-420,715.277C-420,716.266 -419.599,717.069 -419.104,717.069L-408.896,717.069C-408.401,717.069 -408,716.266 -408,715.277L-408,698.076Z"/>
            </g>
            <g transform="matrix(0.866025,-0.5,0.5,0.288675,327.358,243)">
                <path d="M-408,698.076C-408,697.087 -408.401,696.284 -408.896,696.284L-419.104,696.284C-419.599,696.284 -420,697.087 -420,698.076L-420,715.277C-420,716.266 -419.599,717.069 -419.104,717.069L-408.896,717.069C-408.401,717.069 -408,716.266 -408,715.277L-408,698.076Z"/>
            </g>
            <g transform="matrix(0.866025,-0.5,0.5,0.288675,285.788,237)">
                <path d="M-408,698.076C-408,697.087 -408.401,696.284 -408.896,696.284L-419.104,696.284C-419.599,696.284 -420,697.087 -420,698.076L-420,715.277C-420,716.266 -419.599,717.069 -419.104,717.069L-408.896,717.069C-408.401,717.069 -408,716.266 -408,715.277L-408,698.076Z"/>
            </g>
            <g transform="matrix(0.866025,-0.5,0.5,0.288675,298.779,244.5)">
                <path d="M-408,698.076C-408,697.087 -408.401,696.284 -408.896,696.284L-419.104,696.284C-419.599,696.284 -420,697.087 -420,698.076L-420,715.277C-420,716.266 -419.599,717.069 -419.104,717.069L-408.896,717.069C-408.401,717.069 -408,716.266 -408,715.277L-408,698.076Z"/>
            </g>
            <g transform="matrix(0.866025,-0.5,0.5,0.288675,311.769,252)">
                <path d="M-408,698.076C-408,697.087 -408.401,696.284 -408.896,696.284L-419.104,696.284C-419.599,696.284 -420,697.087 -420,698.076L-420,715.277C-420,716.266 -419.599,717.069 -419.104,717.069L-408.896,717.069C-408.401,717.069 -408,716.266 -408,715.277L-408,698.076Z"/>
            </g>
            <g transform="matrix(0.866025,-0.5,0.5,0.288675,324.76,259.5)">
                <path d="M-408,698.076C-408,697.087 -408.401,696.284 -408.896,696.284L-419.104,696.284C-419.599,696.284 -420,697.087 -420,698.076L-420,715.277C-420,716.266 -419.599,717.069 -419.104,717.069L-408.896,717.069C-408.401,717.069 -408,716.266 -408,715.277L-408,698.076Z"/>
            </g>
            <g transform="matrix(0.866025,-0.5,3,1.73205,-1402.96,-738)">
                <path d="M-408,696.629C-408,696.439 -408.463,696.284 -409.034,696.284L-418.966,696.284C-419.537,696.284 -420,696.439 -420,696.629L-420,716.724C-420,716.915 -419.537,717.069 -418.966,717.069L-409.034,717.069C-408.463,717.069 -408,716.915 -408,716.724L-408,696.629Z"/>
            </g>
            <g transform="matrix(0.866025,-0.5,0.5,0.288675,340.348,250.5)">
                <path d="M-408,698.076C-408,697.087 -408.401,696.284 -408.896,696.284L-419.104,696.284C-419.599,696.284 -420,697.087 -420,698.076L-420,715.277C-420,716.266 -419.599,717.069 -419.104,717.069L-408.896,717.069C-408.401,717.069 -408,716.266 -408,715.277L-408,698.076Z"/>
            </g>
            <g transform="matrix(0.866025,-0.5,0.5,0.288675,353.338,258)">
                <path d="M-408,698.076C-408,697.087 -408.401,696.284 -408.896,696.284L-419.104,696.284C-419.599,696.284 -420,697.087 -420,698.076L-420,715.277C-420,716.266 -419.599,717.069 -419.104,717.069L-408.896,717.069C-408.401,717.069 -408,716.266 -408,715.277L-408,698.076Z"/>
            </g>
            <g transform="matrix(0.866025,-0.5,0.5,0.288675,366.329,265.5)">
                <path d="M-408,698.076C-408,697.087 -408.401,696.284 -408.896,696.284L-419.104,696.284C-419.599,696.284 -420,697.087 -420,698.076L-420,715.277C-420,716.266 -419.599,717.069 -419.104,717.069L-408.896,717.069C-408.401,717.069 -408,716.266 -408,715.277L-408,698.076Z"/>
            </g>
            <g transform="matrix(0.866025,-0.5,0.5,0.288675,379.319,273)">
                <path d="M-408,698.076C-408,697.087 -408.401,696.284 -408.896,696.284L-419.104,696.284C-419.599,696.284 -420,697.087 -420,698.076L-420,715.277C-420,716.266 -419.599,717.069 -419.104,717.069L-408.896,717.069C-408.401,717.069 -408,716.266 -408,715.277L-408,698.076Z"/>
            </g>
            <g transform="matrix(0.866025,-0.5,0.5,0.288675,392.31,280.5)">
                <path d="M-408,698.076C-408,697.087 -408.401,696.284 -408.896,696.284L-419.104,696.284C-419.599,696.284 -420,697.087 -420,698.076L-420,715.277C-420,716.266 -419.599,717.069 -419.104,717.069L-408.896,717.069C-408.401,717.069 -408,716.266 -408,715.277L-408,698.076Z"/>
            </g>
            <g transform="matrix(0.866025,-0.5,0.5,0.288675,405.3,288)">
                <path d="M-408,698.076C-408,697.087 -408.401,696.284 -408.896,696.284L-419.104,696.284C-419.599,696.284 -420,697.087 -420,698.076L-420,715.277C-420,716.266 -419.599,717.069 -419.104,717.069L-408.896,717.069C-408.401,717.069 -408,716.266 -408,715.277L-408,698.076Z"/>
            </g>
            <g transform="matrix(0.866025,-0.5,0.5,0.288675,418.29,295.5)">
                <path d="M-408,698.076C-408,697.087 -408.401,696.284 -408.896,696.284L-419.104,696.284C-419.599,696.284 -420,697.087 -420,698.076L-420,715.277C-420,716.266 -419.599,717.069 -419.104,717.069L-408.896,717.069C-408.401,717.069 -408,716.266 -408,715.277L-408,698.076Z"/>
            </g>
            <g transform="matrix(0.866025,-0.5,0.5,0.288675,431.281,303)">
                <path d="M-408,698.076C-408,697.087 -408.401,696.284 -408.896,696.284L-419.104,696.284C-419.599,696.284 -420,697.087 -420,698.076L-420,715.277C-420,716.266 -419.599,717.069 -419.104,717.069L-408.896,717.069C-408.401,717.069 -408,716.266 -408,715.277L-408,698.076Z"/>
            </g>
            <g transform="matrix(0.866025,-0.5,1.125,0.649519,-133.801,-23.25)">
                <path d="M-408,697.204C-408,696.696 -408.463,696.284 -409.034,696.284L-418.966,696.284C-419.537,696.284 -420,696.696 -420,697.204L-420,716.15C-420,716.657 -419.537,717.069 -418.966,717.069L-409.034,717.069C-408.463,717.069 -408,716.657 -408,716.15L-408,697.204Z"/>
            </g>
            <g transform="matrix(0.866025,-0.5,1.10158,0.635998,25.3994,68.6643)">
                <path d="M-408,697.223C-408,696.705 -408.463,696.284 -409.034,696.284L-418.966,696.284C-419.537,696.284 -420,696.705 -420,697.223L-420,716.13C-420,716.648 -419.537,717.069 -418.966,717.069L-409.034,717.069C-408.463,717.069 -408,716.648 -408,716.13L-408,697.223Z"/>
            </g>
            <g transform="matrix(0.866025,-0.5,0.5,0.288675,335.152,229.5)">
                <path d="M-408,698.076C-408,697.087 -408.401,696.284 -408.896,696.284L-419.104,696.284C-419.599,696.284 -420,697.087 -420,698.076L-420,715.277C-420,716.266 -419.599,717.069 -419.104,717.069L-408.896,717.069C-408.401,717.069 -408,716.266 -408,715.277L-408,698.076Z"/>
            </g>
            <g transform="matrix(0.866025,-0.5,0.625,0.360844,245.518,159.75)">
                <path d="M-408,697.939C-408,697.026 -408.463,696.284 -409.034,696.284L-418.966,696.284C-419.537,696.284 -420,697.026 -420,697.939L-420,715.414C-420,716.327 -419.537,717.069 -418.966,717.069L-409.034,717.069C-408.463,717.069 -408,716.327 -408,715.414L-408,697.939Z"/>
            </g>
            <g transform="matrix(0.866025,-0.5,0.5,0.288675,348.142,219)">
                <path d="M-408,698.076C-408,697.087 -408.401,696.284 -408.896,696.284L-419.104,696.284C-419.599,696.284 -420,697.087 -420,698.076L-420,715.277C-420,716.266 -419.599,717.069 -419.104,717.069L-408.896,717.069C-408.401,717.069 -408,716.266 -408,715.277L-408,698.076Z"/>
            </g>
            <g transform="matrix(0.866025,-0.5,0.5,0.288675,361.133,226.5)">
                <path d="M-408,698.076C-408,697.087 -408.401,696.284 -408.896,696.284L-419.104,696.284C-419.599,696.284 -420,697.087 -420,698.076L-420,715.277C-420,716.266 -419.599,717.069 -419.104,717.069L-408.896,717.069C-408.401,717.069 -408,716.266 -408,715.277L-408,698.076Z"/>
            </g>
            <g transform="matrix(0.866025,-0.5,0.5,0.288675,374.123,234)">
                <path d="M-408,698.076C-408,697.087 -408.401,696.284 -408.896,696.284L-419.104,696.284C-419.599,696.284 -420,697.087 -420,698.076L-420,715.277C-420,716.266 -419.599,717.069 -419.104,717.069L-408.896,717.069C-408.401,717.069 -408,716.266 -408,715.277L-408,698.076Z"/>
            </g>
            <g transform="matrix(0.866025,-0.5,0.5,0.288675,387.113,241.5)">
                <path d="M-408,698.076C-408,697.087 -408.401,696.284 -408.896,696.284L-419.104,696.284C-419.599,696.284 -420,697.087 -420,698.076L-420,715.277C-420,716.266 -419.599,717.069 -419.104,717.069L-408.896,717.069C-408.401,717.069 -408,716.266 -408,715.277L-408,698.076Z"/>
            </g>
            <g transform="matrix(0.866025,-0.5,0.5,0.288675,400.104,249)">
                <path d="M-408,698.076C-408,697.087 -408.401,696.284 -408.896,696.284L-419.104,696.284C-419.599,696.284 -420,697.087 -420,698.076L-420,715.277C-420,716.266 -419.599,717.069 -419.104,717.069L-408.896,717.069C-408.401,717.069 -408,716.266 -408,715.277L-408,698.076Z"/>
            </g>
            <g transform="matrix(0.866025,-0.5,0.5,0.288675,413.094,256.5)">
                <path d="M-408,698.076C-408,697.087 -408.401,696.284 -408.896,696.284L-419.104,696.284C-419.599,696.284 -420,697.087 -420,698.076L-420,715.277C-420,716.266 -419.599,717.069 -419.104,717.069L-408.896,717.069C-408.401,717.069 -408,716.266 -408,715.277L-408,698.076Z"/>
            </g>
            <g transform="matrix(0.866025,-0.5,0.5,0.288675,426.084,264)">
                <path d="M-408,698.076C-408,697.087 -408.401,696.284 -408.896,696.284L-419.104,696.284C-419.599,696.284 -420,697.087 -420,698.076L-420,715.277C-420,716.266 -419.599,717.069 -419.104,717.069L-408.896,717.069C-408.401,717.069 -408,716.266 -408,715.277L-408,698.076Z"/>
            </g>
            <g transform="matrix(0.866025,-0.5,1,0.57735,129.904,93)">
                <path d="M-408,697.319C-408,696.748 -408.463,696.284 -409.034,696.284L-418.966,696.284C-419.537,696.284 -420,696.748 -420,697.319L-420,716.035C-420,716.606 -419.537,717.069 -418.966,717.069L-409.034,717.069C-408.463,717.069 -408,716.606 -408,716.035L-408,697.319Z"/>
            </g>
            <g transform="matrix(0.866025,-0.5,0.5,0.288675,348.142,237)">
                <path d="M-408,698.076C-408,697.087 -408.401,696.284 -408.896,696.284L-419.104,696.284C-419.599,696.284 -420,697.087 -420,698.076L-420,715.277C-420,716.266 -419.599,717.069 -419.104,717.069L-408.896,717.069C-408.401,717.069 -408,716.266 -408,715.277L-408,698.076Z"/>
            </g>
            <g transform="matrix(0.866025,-0.5,0.5,0.288675,361.133,244.5)">
                <path d="M-408,698.076C-408,697.087 -408.401,696.284 -408.896,696.284L-419.104,696.284C-419.599,696.284 -420,697.087 -420,698.076L-420,715.277C-420,716.266 -419.599,717.069 -419.104,717.069L-408.896,717.069C-408.401,717.069 -408,716.266 -408,715.277L-408,698.076Z"/>
            </g>
            <g transform="matrix(0.866025,-0.5,0.5,0.288675,374.123,252)">
                <path d="M-408,698.076C-408,697.087 -408.401,696.284 -408.896,696.284L-419.104,696.284C-419.599,696.284 -420,697.087 -420,698.076L-420,715.277C-420,716.266 -419.599,717.069 -419.104,717.069L-408.896,717.069C-408.401,717.069 -408,716.266 -408,715.277L-408,698.076Z"/>
            </g>
            <g transform="matrix(0.866025,-0.5,0.5,0.288675,387.113,259.5)">
                <path d="M-408,698.076C-408,697.087 -408.401,696.284 -408.896,696.284L-419.104,696.284C-419.599,696.284 -420,697.087 -420,698.076L-420,715.277C-420,716.266 -419.599,717.069 -419.104,717.069L-408.896,717.069C-408.401,717.069 -408,716.266 -408,715.277L-408,698.076Z"/>
            </g>
            <g transform="matrix(0.866025,-0.5,0.5,0.288675,400.104,267)">
                <path d="M-408,698.076C-408,697.087 -408.401,696.284 -408.896,696.284L-419.104,696.284C-419.599,696.284 -420,697.087 -420,698.076L-420,715.277C-420,716.266 -419.599,717.069 -419.104,717.069L-408.896,717.069C-408.401,717.069 -408,716.266 -408,715.277L-408,698.076Z"/>
            </g>
            <g transform="matrix(0.866025,-0.5,0.5,0.288675,413.094,274.5)">
                <path d="M-408,698.076C-408,697.087 -408.401,696.284 -408.896,696.284L-419.104,696.284C-419.599,696.284 -420,697.087 -420,698.076L-420,715.277C-420,716.266 -419.599,717.069 -419.104,717.069L-408.896,717.069C-408.401,717.069 -408,716.266 -408,715.277L-408,698.076Z"/>
            </g>
            <g transform="matrix(0.866025,-0.5,0.5,0.288675,426.084,282)">
                <path d="M-408,698.076C-408,697.087 -408.401,696.284 -408.896,696.284L-419.104,696.284C-419.599,696.284 -420,697.087 -420,698.076L-420,715.277C-420,716.266 -419.599,717.069 -419.104,717.069L-408.896,717.069C-408.401,717.069 -408,716.266 -408,715.277L-408,698.076Z"/>
            </g>
            <g transform="matrix(0.866025,-0.5,0.5,0.288675,439.075,289.5)">
                <path d="M-408,698.076C-408,697.087 -408.401,696.284 -408.896,696.284L-419.104,696.284C-419.599,696.284 -420,697.087 -420,698.076L-420,715.277C-420,716.266 -419.599,717.069 -419.104,717.069L-408.896,717.069C-408.401,717.069 -408,716.266 -408,715.277L-408,698.076Z"/>
            </g>
            <g transform="matrix(0.866025,-0.5,0.5,0.288675,452.065,297)">
                <path d="M-408,698.076C-408,697.087 -408.401,696.284 -408.896,696.284L-419.104,696.284C-419.599,696.284 -420,697.087 -420,698.076L-420,715.277C-420,716.266 -419.599,717.069 -419.104,717.069L-408.896,717.069C-408.401,717.069 -408,716.266 -408,715.277L-408,698.076Z"/>
            </g>
            <g transform="matrix(0.866025,-0.5,0.875,0.505181,203.949,153.75)">
                <path d="M-408,697.467C-408,696.814 -408.463,696.284 -409.034,696.284L-418.966,696.284C-419.537,696.284 -420,696.814 -420,697.467L-420,715.887C-420,716.539 -419.537,717.069 -418.966,717.069L-409.034,717.069C-408.463,717.069 -408,716.539 -408,715.887L-408,697.467Z"/>
            </g>
            <g transform="matrix(0.866025,-0.5,0.75,0.433013,143.381,118.219)">
                <path d="M-408,697.664C-408,696.902 -408.463,696.284 -409.034,696.284L-418.966,696.284C-419.537,696.284 -420,696.902 -420,697.664L-420,715.69C-420,716.451 -419.537,717.069 -418.966,717.069L-409.034,717.069C-408.463,717.069 -408,716.451 -408,715.69L-408,697.664Z"/>
            </g>
            <g transform="matrix(0.866025,-0.5,0.5,0.288675,361.133,208.5)">
                <path d="M-408,698.076C-408,697.087 -408.401,696.284 -408.896,696.284L-419.104,696.284C-419.599,696.284 -420,697.087 -420,698.076L-420,715.277C-420,716.266 -419.599,717.069 -419.104,717.069L-408.896,717.069C-408.401,717.069 -408,716.266 -408,715.277L-408,698.076Z"/>
            </g>
            <g transform="matrix(0.866025,-0.5,0.5,0.288675,374.123,216)">
                <path d="M-408,698.076C-408,697.087 -408.401,696.284 -408.896,696.284L-419.104,696.284C-419.599,696.284 -420,697.087 -420,698.076L-420,715.277C-420,716.266 -419.599,717.069 -419.104,717.069L-408.896,717.069C-408.401,717.069 -408,716.266 -408,715.277L-408,698.076Z"/>
            </g>
            <g transform="matrix(0.866025,-0.5,0.5,0.288675,387.113,223.5)">
                <path d="M-408,698.076C-408,697.087 -408.401,696.284 -408.896,696.284L-419.104,696.284C-419.599,696.284 -420,697.087 -420,698.076L-420,715.277C-420,716.266 -419.599,717.069 -419.104,717.069L-408.896,717.069C-408.401,717.069 -408,716.266 -408,715.277L-408,698.076Z"/>
            </g>
            <g transform="matrix(0.866025,-0.5,0.5,0.288675,400.104,231)">
                <path d="M-408,698.076C-408,697.087 -408.401,696.284 -408.896,696.284L-419.104,696.284C-419.599,696.284 -420,697.087 -420,698.076L-420,715.277C-420,716.266 -419.599,717.069 -419.104,717.069L-408.896,717.069C-408.401,717.069 -408,716.266 -408,715.277L-408,698.076Z"/>
            </g>
            <g transform="matrix(0.866025,-0.5,0.5,0.288675,413.094,238.5)">
                <path d="M-408,698.076C-408,697.087 -408.401,696.284 -408.896,696.284L-419.104,696.284C-419.599,696.284 -420,697.087 -420,698.076L-420,715.277C-420,716.266 -419.599,717.069 -419.104,717.069L-408.896,717.069C-408.401,717.069 -408,716.266 -408,715.277L-408,698.076Z"/>
            </g>
            <g transform="matrix(0.866025,-0.5,0.5,0.288675,426.084,246)">
                <path d="M-408,698.076C-408,697.087 -408.401,696.284 -408.896,696.284L-419.104,696.284C-419.599,696.284 -420,697.087 -420,698.076L-420,715.277C-420,716.266 -419.599,717.069 -419.104,717.069L-408.896,717.069C-408.401,717.069 -408,716.266 -408,715.277L-408,698.076Z"/>
            </g>
            <g transform="matrix(0.866025,-0.5,0.5,0.288675,439.075,253.5)">
                <path d="M-408,698.076C-408,697.087 -408.401,696.284 -408.896,696.284L-419.104,696.284C-419.599,696.284 -420,697.087 -420,698.076L-420,715.277C-420,716.266 -419.599,717.069 -419.104,717.069L-408.896,717.069C-408.401,717.069 -408,716.266 -408,715.277L-408,698.076Z"/>
            </g>
            <g transform="matrix(0.866025,-0.5,1.10158,0.635998,-88.1068,-50.8685)">
                <path d="M-408,842.757C-408,842.216 -408.484,841.777 -409.08,841.777L-418.92,841.777C-419.516,841.777 -420,842.216 -420,842.757L-420,861.581C-420,862.122 -419.516,862.561 -418.92,862.561L-409.08,862.561C-408.484,862.561 -408,862.122 -408,861.581L-408,842.757Z"/>
            </g>
            <g transform="matrix(0.866025,-0.5,0.5,0.288675,452.065,261)">
                <path d="M-408,698.076C-408,697.087 -408.401,696.284 -408.896,696.284L-419.104,696.284C-419.599,696.284 -420,697.087 -420,698.076L-420,715.277C-420,716.266 -419.599,717.069 -419.104,717.069L-408.896,717.069C-408.401,717.069 -408,716.266 -408,715.277L-408,698.076Z"/>
            </g>
            <g transform="matrix(0.866025,-0.5,0.5,0.288675,478.046,276)">
                <path d="M-408,698.076C-408,697.087 -408.401,696.284 -408.896,696.284L-419.104,696.284C-419.599,696.284 -420,697.087 -420,698.076L-420,715.277C-420,716.266 -419.599,717.069 -419.104,717.069L-408.896,717.069C-408.401,717.069 -408,716.266 -408,715.277L-408,698.076Z"/>
            </g>
            <g transform="matrix(0.866025,-0.5,0.5,0.288675,465.056,268.5)">
                <path d="M-408,698.076C-408,697.087 -408.401,696.284 -408.896,696.284L-419.104,696.284C-419.599,696.284 -420,697.087 -420,698.076L-420,715.277C-420,716.266 -419.599,717.069 -419.104,717.069L-408.896,717.069C-408.401,717.069 -408,716.266 -408,715.277L-408,698.076Z"/>
            </g>
        </g>
        <g id="Screen">
            <g transform="matrix(0.866025,0.5,-5.55112e-17,1.1547,-2.27374e-13,0)">
                <rect x="408" y="187.061" width="216" height="135.1"/>
            </g>
            <g transform="matrix(0.716073,0.413425,-4.2701e-17,0.888234,6.03737,366.565)">
                <rect x="634.431" y="-117.331" width="81.925" height="18.938" style="fill:rgb(238,45,182);"/>
            </g>
            <g transform="matrix(0.358036,0.206712,-4.2701e-17,0.888234,233.187,532.848)">
                <rect x="634.431" y="-117.331" width="81.925" height="18.938" style="fill:rgb(96,216,194);"/>
            </g>
            <g transform="matrix(0.681992,0.393748,-4.21344e-17,0.876449,13.3803,374.774)">
                <ellipse cx="579.238" cy="-83.346" rx="44.099" ry="50.396" style="fill:rgb(96,216,194);"/>
            </g>
            <g transform="matrix(3.14011,1.81294,-5.91038e-17,1.22943,-1412.69,-415.264)">
                <path d="M579.703,-122.434C574.276,-122.434 569.876,-106.108 569.876,-85.969C569.876,-65.843 574.279,-49.503 579.703,-49.503C585.13,-49.503 589.529,-65.829 589.529,-85.969L579.703,-85.969L579.703,-122.434Z" style="fill:rgb(238,45,182);"/>
            </g>
        </g>
    </g>
    <g id="Coffee-cup" serif:id="Coffee cup" transform="matrix(1.86611,0,0,1.86611,-508.799,-1082.76)">
        <g id="Plate">
            <g transform="matrix(0.866025,-0.5,1,0.57735,0,0)">
                <ellipse cx="-471" cy="1044.43" rx="30" ry="25.981" style="fill:rgb(216,214,214);"/>
            </g>
            <g transform="matrix(0.866025,-0.5,1,0.57735,5.68434e-14,-0.89077)">
                <ellipse cx="-471" cy="1044.43" rx="30" ry="25.981" style="fill:rgb(235,235,235);"/>
            </g>
        </g>
        <g id="Cup">
            <g transform="matrix(0.904644,-0.522297,1.1165,0.644612,-108.165,-87.1212)">
                <ellipse cx="-473.076" cy="1049.62" rx="12.924" ry="10.392" style="fill:rgb(216,214,214);"/>
            </g>
            <g transform="matrix(0.895403,-0.516961,1.11351,0.642884,-109.592,-110.035)">
                <ellipse cx="-473.076" cy="1049.62" rx="12.924" ry="10.392" style="fill:rgb(216,214,214);"/>
            </g>
            <g transform="matrix(0.987277,0.570005,-5.55112e-17,1.1547,-87.6133,-59.5836)">
                <ellipse cx="750" cy="397.506" rx="6" ry="7.794" style="fill:rgb(216,214,214);"/>
            </g>
            <g transform="matrix(0.943862,0.544939,-6.27607e-17,1.3055,-55.4837,-97.4604)">
                <ellipse cx="750.458" cy="394.812" rx="2.542" ry="3.966" style="fill:rgb(235,235,235);"/>
            </g>
            <g transform="matrix(1.07562,0,0,0.713282,-45.8822,231.554)">
                <rect x="618.342" y="810" width="30.423" height="38.565" style="fill:rgb(216,214,214);"/>
            </g>
            <g transform="matrix(0.837633,-0.483608,1.04167,0.601407,-61.5145,-48.9846)">
                <ellipse cx="-473.076" cy="1049.62" rx="12.924" ry="10.392" style="fill:rgb(146,35,35);"/>
            </g>
        </g>
    </g>
    <g id="Phone" transform="matrix(1.51969,0,0,1.51969,-193.858,-644.75)">
        <g transform="matrix(0.844743,0.487713,-5.55112e-17,1.1547,9.64071,5.56607)">
            <path d="M453,561.184L390,561.184L390,565.096C390,565.891 390.579,566.381 391.52,566.381C399.494,566.381 436.594,566.381 448.97,566.381C449.801,566.381 450.825,565.948 451.657,565.246C452.488,564.544 453,563.678 453,562.976C453,561.995 453,561.184 453,561.184Z" style="fill:rgb(190,190,190);"/>
        </g>
        <g transform="matrix(0.938045,-0.54158,3.30585e-17,0.706002,-35.2228,447.498)">
            <path d="M562.358,952.004L453,952.004L453,955.725C453,956.337 453.246,957.09 453.644,957.702C454.043,958.313 454.534,958.69 454.933,958.69C468.435,958.69 548.484,958.69 560.774,958.69C561.754,958.69 562.358,957.764 562.358,956.261C562.358,954.349 562.358,952.004 562.358,952.004Z" style="fill:rgb(190,190,190);"/>
        </g>
        <g transform="matrix(1.17804,-0.680142,1.01829,0.58791,-1110.24,623.21)">
            <ellipse cx="450.795" cy="951.876" rx="2.205" ry="2.172" style="fill:rgb(190,190,190);"/>
        </g>
        <g transform="matrix(0.866025,-0.5,1,0.57735,0,0)">
            <path d="M-528,906.183C-528,902.182 -531.248,898.934 -535.249,898.934L-643.751,898.934C-647.752,898.934 -651,902.182 -651,906.183L-651,946.245C-651,950.246 -647.752,953.494 -643.751,953.494L-535.249,953.494C-531.248,953.494 -528,950.246 -528,946.245L-528,906.183Z" style="fill:rgb(235,235,235);"/>
        </g>
        <g transform="matrix(0.791795,-0.457143,1.26667,0.73131,-286.852,-119.586)">
            <rect x="-642" y="906.729" width="105" height="38.971"/>
        </g>
        <g transform="matrix(0.866025,-0.5,1,0.57735,-2.59808,-1.5)">
            <ellipse cx="-642" cy="927.513" rx="6" ry="5.196" style="fill:rgb(101,101,101);"/>
        </g>
        <g transform="matrix(0.866025,-0.5,0.666667,0.3849,308.305,178)">
            <path d="M-531,918.246C-531,917.625 -531.336,917.121 -531.75,917.121L-533.25,917.121C-533.664,917.121 -534,917.625 -534,918.246L-534,931.584C-534,932.205 -533.664,932.709 -533.25,932.709L-531.75,932.709C-531.336,932.709 -531,932.205 -531,931.584L-531,918.246Z" style="fill:rgb(101,101,101);"/>
        </g>
        <g transform="matrix(0.569872,-0.329016,0.699056,0.4036,95.8024,405.928)">
            <rect x="-384" y="732.554" width="3" height="41.673" style="fill:rgb(64,64,64);"/>
        </g>
        <g transform="matrix(0.569872,-0.329016,0.699056,0.4036,92.3831,407.902)">
            <rect x="-384" y="732.554" width="3" height="41.673" style="fill:rgb(64,64,64);"/>
        </g>
        <g transform="matrix(0.569872,-0.329016,0.699056,0.4036,88.9639,409.876)">
            <rect x="-384" y="732.554" width="3" height="41.673" style="fill:rgb(64,64,64);"/>
        </g>
        <g id="Mail" transform="matrix(1,0,0,1,-10.2774,5.6615)">
            <g transform="matrix(0.569872,-0.329016,0.647749,0.373978,133.896,427.921)">
                <rect x="-345" y="726.595" width="44" height="55.426" style="fill:rgb(255,162,141);"/>
            </g>
            <g transform="matrix(0.43147,-0.0792488,0.117565,0.64008,165.036,471.344)">
                <rect x="464.19" y="569" width="2.598" height="27.5"/>
            </g>
            <g transform="matrix(0.649297,0.0673239,-0.0791766,0.763609,179.489,326.251)">
                <rect x="467.654" y="599" width="51.095" height="1.5"/>
            </g>
        </g>
    </g>
</svg>
